<mxfile host="app.diagrams.net" modified="2023-08-15T01:25:54.272Z" agent="Mozilla/5.0 (Windows NT 10.0; Win64; x64) AppleWebKit/537.36 (KHTML, like Gecko) Chrome/115.0.0.0 Safari/537.36 Edg/115.0.1901.203" etag="k8vTManrSuj1R4XlbTkF" version="21.5.1" type="github">
  <diagram name="Página-1" id="vzmykAQDJHXHilZ2Ruip">
    <mxGraphModel dx="819" dy="469" grid="1" gridSize="10" guides="1" tooltips="1" connect="1" arrows="1" fold="1" page="1" pageScale="1" pageWidth="827" pageHeight="1169" math="0" shadow="0">
      <root>
        <mxCell id="0" />
        <mxCell id="1" parent="0" />
        <mxCell id="V3Id_f0gY5Y731fz_w0r-4" style="edgeStyle=orthogonalEdgeStyle;rounded=0;orthogonalLoop=1;jettySize=auto;html=1;entryX=0.5;entryY=0;entryDx=0;entryDy=0;" edge="1" parent="1" source="V3Id_f0gY5Y731fz_w0r-1" target="V3Id_f0gY5Y731fz_w0r-3">
          <mxGeometry relative="1" as="geometry" />
        </mxCell>
        <mxCell id="V3Id_f0gY5Y731fz_w0r-16" value="Responsável por receber, analisar e responder" style="edgeLabel;html=1;align=center;verticalAlign=middle;resizable=0;points=[];" vertex="1" connectable="0" parent="V3Id_f0gY5Y731fz_w0r-4">
          <mxGeometry x="0.0703" y="2" relative="1" as="geometry">
            <mxPoint as="offset" />
          </mxGeometry>
        </mxCell>
        <mxCell id="V3Id_f0gY5Y731fz_w0r-1" value="&lt;b&gt;CSIRT&lt;/b&gt;&lt;br&gt;Grupo de Resposta a Incidentes de Segurança" style="rounded=1;whiteSpace=wrap;html=1;" vertex="1" parent="1">
          <mxGeometry x="230" y="180" width="290" height="80" as="geometry" />
        </mxCell>
        <mxCell id="V3Id_f0gY5Y731fz_w0r-19" value="" style="edgeStyle=orthogonalEdgeStyle;rounded=0;orthogonalLoop=1;jettySize=auto;html=1;entryX=0;entryY=0.5;entryDx=0;entryDy=0;" edge="1" parent="1" source="V3Id_f0gY5Y731fz_w0r-3" target="V3Id_f0gY5Y731fz_w0r-18">
          <mxGeometry relative="1" as="geometry">
            <mxPoint x="800" y="350" as="targetPoint" />
            <Array as="points">
              <mxPoint x="720" y="415" />
              <mxPoint x="720" y="380" />
            </Array>
          </mxGeometry>
        </mxCell>
        <mxCell id="V3Id_f0gY5Y731fz_w0r-25" style="edgeStyle=orthogonalEdgeStyle;rounded=0;orthogonalLoop=1;jettySize=auto;html=1;entryX=0;entryY=0.5;entryDx=0;entryDy=0;" edge="1" parent="1" source="V3Id_f0gY5Y731fz_w0r-3" target="V3Id_f0gY5Y731fz_w0r-24">
          <mxGeometry relative="1" as="geometry">
            <Array as="points">
              <mxPoint x="720" y="415" />
              <mxPoint x="720" y="470" />
            </Array>
          </mxGeometry>
        </mxCell>
        <mxCell id="V3Id_f0gY5Y731fz_w0r-28" value="ato de violar uma &lt;br&gt;política de segurança" style="edgeLabel;html=1;align=center;verticalAlign=middle;resizable=0;points=[];" vertex="1" connectable="0" parent="V3Id_f0gY5Y731fz_w0r-25">
          <mxGeometry x="-0.2992" y="1" relative="1" as="geometry">
            <mxPoint x="-6" y="1" as="offset" />
          </mxGeometry>
        </mxCell>
        <mxCell id="V3Id_f0gY5Y731fz_w0r-30" style="edgeStyle=orthogonalEdgeStyle;rounded=0;orthogonalLoop=1;jettySize=auto;html=1;" edge="1" parent="1" source="V3Id_f0gY5Y731fz_w0r-3" target="V3Id_f0gY5Y731fz_w0r-29">
          <mxGeometry relative="1" as="geometry" />
        </mxCell>
        <mxCell id="V3Id_f0gY5Y731fz_w0r-31" value="Pode ser definido por" style="edgeLabel;html=1;align=center;verticalAlign=middle;resizable=0;points=[];" vertex="1" connectable="0" parent="V3Id_f0gY5Y731fz_w0r-30">
          <mxGeometry x="-0.2485" y="1" relative="1" as="geometry">
            <mxPoint as="offset" />
          </mxGeometry>
        </mxCell>
        <mxCell id="V3Id_f0gY5Y731fz_w0r-3" value="Incidentes de Segurança" style="rounded=1;whiteSpace=wrap;html=1;" vertex="1" parent="1">
          <mxGeometry x="230" y="380" width="290" height="60" as="geometry" />
        </mxCell>
        <mxCell id="V3Id_f0gY5Y731fz_w0r-5" value="Tentativas de ganhar acesso não autorizado ao sistema ou dados" style="rounded=1;whiteSpace=wrap;html=1;" vertex="1" parent="1">
          <mxGeometry x="47" y="770" width="150" height="70" as="geometry" />
        </mxCell>
        <mxCell id="V3Id_f0gY5Y731fz_w0r-6" value="Interrupção indesejada ou negação de serviço" style="rounded=1;whiteSpace=wrap;html=1;" vertex="1" parent="1">
          <mxGeometry x="227" y="770" width="150" height="70" as="geometry" />
        </mxCell>
        <mxCell id="V3Id_f0gY5Y731fz_w0r-7" value="modificações de hardware, firmware ou software de sistema sem o conhecimento, instrução ou consentimento do dono do sistema" style="rounded=1;whiteSpace=wrap;html=1;" vertex="1" parent="1">
          <mxGeometry x="587" y="770" width="240" height="70" as="geometry" />
        </mxCell>
        <mxCell id="V3Id_f0gY5Y731fz_w0r-8" value="uso não autorizado de um sistema para processamento ou armazenamento de dados" style="rounded=1;whiteSpace=wrap;html=1;" vertex="1" parent="1">
          <mxGeometry x="407" y="770" width="150" height="70" as="geometry" />
        </mxCell>
        <mxCell id="V3Id_f0gY5Y731fz_w0r-18" value="explícita" style="whiteSpace=wrap;html=1;rounded=1;" vertex="1" parent="1">
          <mxGeometry x="770" y="350" width="120" height="60" as="geometry" />
        </mxCell>
        <mxCell id="V3Id_f0gY5Y731fz_w0r-24" value="implícita" style="whiteSpace=wrap;html=1;rounded=1;" vertex="1" parent="1">
          <mxGeometry x="770" y="440" width="120" height="60" as="geometry" />
        </mxCell>
        <mxCell id="V3Id_f0gY5Y731fz_w0r-32" style="edgeStyle=orthogonalEdgeStyle;rounded=0;orthogonalLoop=1;jettySize=auto;html=1;exitX=0.5;exitY=1;exitDx=0;exitDy=0;" edge="1" parent="1" source="V3Id_f0gY5Y731fz_w0r-29" target="V3Id_f0gY5Y731fz_w0r-5">
          <mxGeometry relative="1" as="geometry" />
        </mxCell>
        <mxCell id="V3Id_f0gY5Y731fz_w0r-33" style="edgeStyle=orthogonalEdgeStyle;rounded=0;orthogonalLoop=1;jettySize=auto;html=1;" edge="1" parent="1" source="V3Id_f0gY5Y731fz_w0r-29" target="V3Id_f0gY5Y731fz_w0r-6">
          <mxGeometry relative="1" as="geometry" />
        </mxCell>
        <mxCell id="V3Id_f0gY5Y731fz_w0r-34" style="edgeStyle=orthogonalEdgeStyle;rounded=0;orthogonalLoop=1;jettySize=auto;html=1;entryX=0.5;entryY=0;entryDx=0;entryDy=0;" edge="1" parent="1" source="V3Id_f0gY5Y731fz_w0r-29" target="V3Id_f0gY5Y731fz_w0r-8">
          <mxGeometry relative="1" as="geometry" />
        </mxCell>
        <mxCell id="V3Id_f0gY5Y731fz_w0r-35" style="edgeStyle=orthogonalEdgeStyle;rounded=0;orthogonalLoop=1;jettySize=auto;html=1;exitX=0.5;exitY=1;exitDx=0;exitDy=0;" edge="1" parent="1" source="V3Id_f0gY5Y731fz_w0r-29" target="V3Id_f0gY5Y731fz_w0r-7">
          <mxGeometry relative="1" as="geometry" />
        </mxCell>
        <mxCell id="V3Id_f0gY5Y731fz_w0r-36" value="Exemplos" style="edgeLabel;html=1;align=center;verticalAlign=middle;resizable=0;points=[];" vertex="1" connectable="0" parent="V3Id_f0gY5Y731fz_w0r-35">
          <mxGeometry x="-0.8197" y="-4" relative="1" as="geometry">
            <mxPoint as="offset" />
          </mxGeometry>
        </mxCell>
        <mxCell id="V3Id_f0gY5Y731fz_w0r-29" value="uma atividade nas máquinas ou na rede que possa ameaçar a segurança dos sistemas computacionais." style="rounded=1;whiteSpace=wrap;html=1;" vertex="1" parent="1">
          <mxGeometry x="220" y="550" width="310" height="60" as="geometry" />
        </mxCell>
      </root>
    </mxGraphModel>
  </diagram>
</mxfile>
